HIERARCHY
ROOT hip
{
	OFFSET 0.000000 0.000000 0.000000
	CHANNELS 6 Xposition Yposition Zposition Zrotation Yrotation Xrotation 
	JOINT lhipjoint
	{
		OFFSET 0.000000 0.000000 0.000000
		CHANNELS 3 Zrotation Yrotation Xrotation
		JOINT lfemur
		{
			OFFSET 1.363060 -1.794630 0.839290
			CHANNELS 3 Zrotation Yrotation Xrotation
			JOINT ltibia
			{
				OFFSET 2.448110 -6.726130 0.000000
				CHANNELS 3 Zrotation Yrotation Xrotation
				JOINT lfoot
				{
					OFFSET 2.562200 -7.039590 0.000000
					CHANNELS 3 Zrotation Yrotation Xrotation
					JOINT ltoes
					{
						OFFSET 0.157640 -0.433110 2.322550
						CHANNELS 3 Zrotation Yrotation Xrotation
						End Site
						{
							OFFSET 0.000000 0.000000 0.000000
						}
					}
				}
			}
		}
	}
	JOINT rhipjoint
	{
		OFFSET 0.000000 0.000000 0.000000
		CHANNELS 3 Zrotation Yrotation Xrotation
		JOINT rfemur
		{
			OFFSET -1.305520 -1.794630 0.839290
			CHANNELS 3 Zrotation Yrotation Xrotation
			JOINT rtibia
			{
				OFFSET -2.542530 -6.985550 0.000000
				CHANNELS 3 Zrotation Yrotation Xrotation
				JOINT rfoot
				{
					OFFSET -2.568260 -7.056230 0.000000
					CHANNELS 3 Zrotation Yrotation Xrotation
					JOINT rtoes
					{
						OFFSET -0.164730 -0.452590 2.363150
						CHANNELS 3 Zrotation Yrotation Xrotation
						End Site
						{
							OFFSET 0.000000 0.000000 0.000000
						}
					}
				}
			}
		}
	}
	JOINT lowerback
	{
		OFFSET 0.000000 0.000000 0.000000
		CHANNELS 3 Zrotation Yrotation Xrotation
		JOINT upperback
		{
			OFFSET 0.028270 2.035590 -0.193380
			CHANNELS 3 Zrotation Yrotation Xrotation
			JOINT thorax
			{
				OFFSET 0.056720 2.048850 -0.042750
				CHANNELS 3 Zrotation Yrotation Xrotation
				JOINT lowerneck
				{
					OFFSET 0.000000 0.000000 0.000000
					CHANNELS 3 Zrotation Yrotation Xrotation
					JOINT upperneck
					{
						OFFSET -0.054170 1.746240 0.172020
						CHANNELS 3 Zrotation Yrotation Xrotation
						JOINT head
						{
							OFFSET 0.104070 1.761360 -0.123970
							CHANNELS 3 Zrotation Yrotation Xrotation
							End Site
							{
								OFFSET 0.000000 0.000000 0.000000
							}
						}
					}
				}
				JOINT lclavicle
				{
					OFFSET 0.000000 0.000000 0.000000
					CHANNELS 3 Zrotation Yrotation Xrotation
					JOINT lhumerus
					{
						OFFSET 3.362410 1.200890 -0.311210
						CHANNELS 3 Zrotation Yrotation Xrotation
						JOINT lradius
						{
							OFFSET 4.983000 -0.000000 -0.000000
							CHANNELS 3 Zrotation Yrotation Xrotation
							JOINT lwrist
							{
								OFFSET 3.483560 -0.000000 -0.000000
								CHANNELS 3 Zrotation Yrotation Xrotation
								JOINT lhand
								{
									OFFSET 0.000000 0.000000 0.000000
									CHANNELS 3 Zrotation Yrotation Xrotation
									JOINT lfingers
									{
										OFFSET 0.715260 -0.000000 -0.000000
										CHANNELS 3 Zrotation Yrotation Xrotation
										End Site
										{
											OFFSET 0.000000 0.000000 0.000000
										}
									}
								}
								JOINT lthumb
								{
									OFFSET 0.000000 0.000000 0.000000
									CHANNELS 3 Zrotation Yrotation Xrotation
									End Site
									{
										OFFSET 0.000000 0.000000 0.000000
									}
								}
							}
						}
					}
				}
				JOINT rclavicle
				{
					OFFSET 0.000000 0.000000 0.000000
					CHANNELS 3 Zrotation Yrotation Xrotation
					JOINT rhumerus
					{
						OFFSET -3.136600 1.374050 -0.404650
						CHANNELS 3 Zrotation Yrotation Xrotation
						JOINT rradius
						{
							OFFSET -5.241900 -0.000000 -0.000000
							CHANNELS 3 Zrotation Yrotation Xrotation
							JOINT rwrist
							{
								OFFSET -3.444170 -0.000000 -0.000000
								CHANNELS 3 Zrotation Yrotation Xrotation
								JOINT rhand
								{
									OFFSET 0.000000 0.000000 0.000000
									CHANNELS 3 Zrotation Yrotation Xrotation
									JOINT rfingers
									{
										OFFSET -0.622530 -0.000000 -0.000000
										CHANNELS 3 Zrotation Yrotation Xrotation
										End Site
										{
											OFFSET 0.000000 0.000000 0.000000
										}
									}
								}
								JOINT rthumb
								{
									OFFSET 0.000000 0.000000 0.000000
									CHANNELS 3 Zrotation Yrotation Xrotation
									End Site
									{
										OFFSET 0.000000 0.000000 0.000000
									}
								}
							}
						}
					}
				}
			}
		}
	}
}
MOTION
Frames: 4
Frame Time: 0.008333
-6.605728 19.691628 -1.785648 -15.373633 -84.694766 16.055704 -3.306044 1.636182 0.843649 -10.775803 -2.908185 -13.755303 10.499354 16.822072 61.105631 0.608271 1.274468 15.704231 0.834100 -5.826200 -16.280800 -0.530555 -3.769784 0.718968 19.491840 3.720642 -14.075329 -1.941655 -8.399100 27.738434 -1.985728 14.074974 5.931267 -0.034300 -1.195000 3.285500 3.773160 2.168862 -1.064641 0.725386 2.252809 -2.009160 -2.161244 2.179986 13.600271 4.056372 -3.758078 -5.376671 -7.508093 -3.470088 7.097804 -1.311800 -1.579700 1.067500 4.833212 4.822209 1.727940 -90.601297 0.256946 2.968078 -1.541058 -15.974183 -0.512649 -0.631349 0.543467 60.966803 3.606992 -3.521583 -0.247700 -7.125000 0.000000 0.000000 -16.765700 26.634100 7.786800 -3.892986 -1.391019 3.162190 88.770463 4.375868 13.761216 -6.990186 27.754910 -1.767205 -0.239574 -2.816940 8.148049 -10.813625 3.322349 -1.200700 7.125000 0.000000 0.000000 11.590600 -23.693100 6.076600 
-6.755779 19.690091 -1.782880 -16.634211 -84.756025 17.300939 -3.285071 1.588340 0.786017 -10.672066 -2.944342 -14.935156 10.415267 16.781741 60.948927 0.713478 0.095769 15.078197 0.720900 -5.425700 -15.126800 -0.517158 -3.800486 0.754131 19.621336 3.450700 -13.605312 -1.929619 -8.350282 27.633464 -2.014609 14.466766 5.681447 -0.033500 -1.180700 3.246200 3.839075 2.270658 -0.981660 0.708887 2.396794 -2.013160 -2.157074 2.237070 13.562121 4.072421 -3.881787 -5.366798 -7.553659 -3.619816 6.977981 -1.333500 -1.648200 1.014600 4.832474 4.864999 1.724581 -90.653315 0.615426 2.229259 -1.709602 -15.567085 -0.497992 -0.588511 0.590907 61.991580 2.644217 -3.277053 -0.182300 -7.125000 0.000000 0.000000 -17.490800 26.813300 8.077000 -3.842291 -1.436207 3.159281 88.520225 5.086479 14.608431 -7.384833 28.128790 -1.805882 -0.190429 -2.849980 7.786371 -10.588563 3.268995 -1.174100 7.125000 0.000000 0.000000 11.731400 -23.725500 6.144500 
-6.904702 19.688451 -1.780318 -17.630054 -84.815157 18.305536 -3.266018 1.544552 0.730248 -10.603946 -3.003443 -16.104497 10.300476 16.722547 60.668551 0.802354 -1.023524 14.315374 0.610700 -5.001800 -13.913600 -0.506811 -3.827544 0.789072 19.719803 3.235835 -13.146958 -1.922853 -8.309848 27.554673 -2.041130 14.825417 5.429893 -0.039500 -1.283000 3.527900 3.881265 2.379517 -0.895352 0.684837 2.552030 -2.020232 -2.184412 2.303966 13.519641 4.159645 -3.995055 -5.421036 -7.617443 -3.768598 6.901726 -1.386400 -1.719700 0.995300 4.821959 4.897137 1.714959 -90.660337 0.984895 1.707374 -1.828350 -15.266487 -0.483969 -0.562814 0.623132 62.739924 1.994382 -3.201706 -0.146300 -7.125000 0.000000 0.000000 -17.965100 26.850900 8.300800 -3.773047 -1.475600 3.161153 88.249101 5.731485 15.691793 -7.914708 28.633803 -1.871061 -0.141775 -2.898670 7.225605 -10.481268 3.220874 -1.164300 7.125000 0.000000 0.000000 11.790500 -23.732100 6.175000 
-7.054651 19.686914 -1.776731 -18.510623 -84.906115 19.199713 -3.245460 1.504629 0.676292 -10.571203 -3.007425 -17.247430 10.150601 16.644072 60.254455 0.883858 -2.112425 13.441110 0.535800 -4.690100 -13.026700 -0.498338 -3.850983 0.820225 19.789937 3.019984 -12.715862 -1.921872 -8.280996 27.507639 -2.070693 15.215526 5.143013 -0.038000 -1.258500 3.460500 3.895540 2.479484 -0.830840 0.661468 2.697166 -2.025203 -2.187143 2.362628 13.489043 4.192101 -4.102794 -5.445049 -7.674213 -3.903397 6.813021 -1.420200 -1.783300 0.963800 4.799456 4.930804 1.706326 -90.642132 1.408647 1.595356 -1.899939 -15.086964 -0.473718 -0.544955 0.633169 62.951814 1.680135 -3.106158 -0.126500 -7.125000 0.000000 0.000000 -18.207700 26.920600 8.392700 -3.696518 -1.514602 3.167807 87.914691 6.376391 16.924869 -8.463542 29.146067 -1.946560 -0.109280 -2.937962 6.544032 -10.532133 3.304651 -1.193500 7.125000 0.000000 0.000000 11.741700 -23.608600 6.182500 
